<mxfile host="app.diagrams.net" agent="Mozilla/5.0 (Windows NT 10.0; Win64; x64) AppleWebKit/537.36 (KHTML, like Gecko) Chrome/130.0.0.0 Safari/537.36 Edg/130.0.0.0" version="24.8.1">
  <diagram name="Page-1" id="9c096ad6-e400-ecc8-3e38-643d2caac077">
    <mxGraphModel dx="1303" dy="766" grid="0" gridSize="10" guides="1" tooltips="1" connect="1" arrows="1" fold="1" page="1" pageScale="1.5" pageWidth="1169" pageHeight="826" background="#ffffff" math="0" shadow="0">
      <root>
        <mxCell id="0" style=";html=1;" />
        <mxCell id="1" style=";html=1;" parent="0" />
        <mxCell id="7tmLodyHe8h0CzpAycBB-1" value="&#xa;Quản lý Logistics/Giao hàng&#xa;&#xa;" style="rounded=0;whiteSpace=wrap;html=1;" vertex="1" parent="1">
          <mxGeometry x="161" y="551" width="120" height="60" as="geometry" />
        </mxCell>
        <mxCell id="7tmLodyHe8h0CzpAycBB-24" value="" style="edgeStyle=orthogonalEdgeStyle;rounded=0;orthogonalLoop=1;jettySize=auto;html=1;" edge="1" parent="1" source="7tmLodyHe8h0CzpAycBB-2" target="7tmLodyHe8h0CzpAycBB-23">
          <mxGeometry relative="1" as="geometry" />
        </mxCell>
        <mxCell id="7tmLodyHe8h0CzpAycBB-2" value="&#xa;Quản lý Đơn hàng&#xa;&#xa;" style="whiteSpace=wrap;html=1;rounded=0;" vertex="1" parent="1">
          <mxGeometry x="511" y="376" width="120" height="60" as="geometry" />
        </mxCell>
        <mxCell id="7tmLodyHe8h0CzpAycBB-4" value="&#xa;Quản lý Vận chuyển&#xa;&#xa;" style="whiteSpace=wrap;html=1;rounded=0;" vertex="1" parent="1">
          <mxGeometry x="634" y="663" width="120" height="60" as="geometry" />
        </mxCell>
        <mxCell id="7tmLodyHe8h0CzpAycBB-8" value="" style="endArrow=classic;html=1;rounded=0;exitX=1;exitY=0;exitDx=0;exitDy=0;entryX=0;entryY=1;entryDx=0;entryDy=0;" edge="1" parent="1" source="7tmLodyHe8h0CzpAycBB-1" target="7tmLodyHe8h0CzpAycBB-2">
          <mxGeometry width="50" height="50" relative="1" as="geometry">
            <mxPoint x="872" y="680" as="sourcePoint" />
            <mxPoint x="922" y="630" as="targetPoint" />
          </mxGeometry>
        </mxCell>
        <mxCell id="7tmLodyHe8h0CzpAycBB-9" value="" style="endArrow=classic;html=1;rounded=0;exitX=1;exitY=0.5;exitDx=0;exitDy=0;entryX=0;entryY=0.5;entryDx=0;entryDy=0;" edge="1" parent="1" source="7tmLodyHe8h0CzpAycBB-1" target="7tmLodyHe8h0CzpAycBB-4">
          <mxGeometry width="50" height="50" relative="1" as="geometry">
            <mxPoint x="872" y="680" as="sourcePoint" />
            <mxPoint x="922" y="630" as="targetPoint" />
          </mxGeometry>
        </mxCell>
        <mxCell id="7tmLodyHe8h0CzpAycBB-18" value="" style="edgeStyle=orthogonalEdgeStyle;rounded=0;orthogonalLoop=1;jettySize=auto;html=1;" edge="1" parent="1" source="7tmLodyHe8h0CzpAycBB-12" target="7tmLodyHe8h0CzpAycBB-17">
          <mxGeometry relative="1" as="geometry" />
        </mxCell>
        <mxCell id="7tmLodyHe8h0CzpAycBB-21" value="" style="edgeStyle=orthogonalEdgeStyle;rounded=0;orthogonalLoop=1;jettySize=auto;html=1;" edge="1" parent="1" source="7tmLodyHe8h0CzpAycBB-12" target="7tmLodyHe8h0CzpAycBB-20">
          <mxGeometry relative="1" as="geometry" />
        </mxCell>
        <mxCell id="7tmLodyHe8h0CzpAycBB-12" value="&#xa;&lt;span class=&quot;hljs-selector-tag&quot;&gt;B&lt;/span&gt;áo cáo và Phân tích&#xa;&#xa;" style="rounded=0;whiteSpace=wrap;html=1;" vertex="1" parent="1">
          <mxGeometry x="511" y="231" width="120" height="60" as="geometry" />
        </mxCell>
        <mxCell id="7tmLodyHe8h0CzpAycBB-14" value="" style="endArrow=classic;html=1;rounded=0;exitX=0.5;exitY=0;exitDx=0;exitDy=0;entryX=0;entryY=0.5;entryDx=0;entryDy=0;" edge="1" parent="1" source="7tmLodyHe8h0CzpAycBB-1" target="7tmLodyHe8h0CzpAycBB-12">
          <mxGeometry width="50" height="50" relative="1" as="geometry">
            <mxPoint x="872" y="680" as="sourcePoint" />
            <mxPoint x="922" y="630" as="targetPoint" />
          </mxGeometry>
        </mxCell>
        <mxCell id="7tmLodyHe8h0CzpAycBB-15" value="&#xa;Cậ&lt;span class=&quot;hljs-selector-tag&quot;&gt;p&lt;/span&gt; nhật &lt;span class=&quot;hljs-selector-tag&quot;&gt;Tr&lt;/span&gt;ạng &lt;span class=&quot;hljs-selector-tag&quot;&gt;th&lt;/span&gt;á&lt;span class=&quot;hljs-selector-tag&quot;&gt;i&lt;/span&gt; Đơn hàng&#xa;&#xa;" style="whiteSpace=wrap;html=1;rounded=0;" vertex="1" parent="1">
          <mxGeometry x="660" y="91" width="120" height="60" as="geometry" />
        </mxCell>
        <mxCell id="7tmLodyHe8h0CzpAycBB-17" value="&#xa;Tạo Đơn hàng&#xa;&#xa;" style="whiteSpace=wrap;html=1;rounded=0;" vertex="1" parent="1">
          <mxGeometry x="511" y="91" width="120" height="60" as="geometry" />
        </mxCell>
        <mxCell id="7tmLodyHe8h0CzpAycBB-20" value="&#xa;Theo dõ&lt;span class=&quot;hljs-selector-tag&quot;&gt;i&lt;/span&gt; Lịch sử Đơn hàng&#xa;&#xa;" style="whiteSpace=wrap;html=1;rounded=0;" vertex="1" parent="1">
          <mxGeometry x="705" y="173" width="120" height="60" as="geometry" />
        </mxCell>
        <mxCell id="7tmLodyHe8h0CzpAycBB-22" value="" style="endArrow=classic;html=1;rounded=0;exitX=1;exitY=0;exitDx=0;exitDy=0;entryX=0;entryY=1;entryDx=0;entryDy=0;" edge="1" parent="1" source="7tmLodyHe8h0CzpAycBB-12" target="7tmLodyHe8h0CzpAycBB-15">
          <mxGeometry width="50" height="50" relative="1" as="geometry">
            <mxPoint x="872" y="680" as="sourcePoint" />
            <mxPoint x="922" y="630" as="targetPoint" />
          </mxGeometry>
        </mxCell>
        <mxCell id="7tmLodyHe8h0CzpAycBB-23" value="&#xa;Tạo Lịch &lt;span class=&quot;hljs-selector-tag&quot;&gt;tr&lt;/span&gt;ình Vận chuyển&#xa;&#xa;" style="whiteSpace=wrap;html=1;rounded=0;" vertex="1" parent="1">
          <mxGeometry x="654" y="303" width="120" height="60" as="geometry" />
        </mxCell>
        <mxCell id="7tmLodyHe8h0CzpAycBB-25" value="&#xa;Quản lý Chi phí Vận chuyển&#xa;&#xa;" style="whiteSpace=wrap;html=1;rounded=0;" vertex="1" parent="1">
          <mxGeometry x="540" y="505" width="120" height="60" as="geometry" />
        </mxCell>
        <mxCell id="7tmLodyHe8h0CzpAycBB-27" value="&#xa; Theo dõ&lt;span class=&quot;hljs-selector-tag&quot;&gt;i&lt;/span&gt; Đơn vị Vận chuyển&#xa;&#xa;" style="whiteSpace=wrap;html=1;rounded=0;" vertex="1" parent="1">
          <mxGeometry x="710" y="436" width="120" height="60" as="geometry" />
        </mxCell>
        <mxCell id="7tmLodyHe8h0CzpAycBB-30" value="" style="endArrow=classic;html=1;rounded=0;exitX=1;exitY=1;exitDx=0;exitDy=0;entryX=0;entryY=0;entryDx=0;entryDy=0;" edge="1" parent="1" source="7tmLodyHe8h0CzpAycBB-2" target="7tmLodyHe8h0CzpAycBB-27">
          <mxGeometry width="50" height="50" relative="1" as="geometry">
            <mxPoint x="872" y="680" as="sourcePoint" />
            <mxPoint x="922" y="630" as="targetPoint" />
          </mxGeometry>
        </mxCell>
        <mxCell id="7tmLodyHe8h0CzpAycBB-31" value="" style="endArrow=classic;html=1;rounded=0;exitX=0.5;exitY=1;exitDx=0;exitDy=0;entryX=0.5;entryY=0;entryDx=0;entryDy=0;" edge="1" parent="1" source="7tmLodyHe8h0CzpAycBB-2" target="7tmLodyHe8h0CzpAycBB-25">
          <mxGeometry width="50" height="50" relative="1" as="geometry">
            <mxPoint x="872" y="680" as="sourcePoint" />
            <mxPoint x="922" y="630" as="targetPoint" />
          </mxGeometry>
        </mxCell>
        <mxCell id="7tmLodyHe8h0CzpAycBB-33" value="" style="endArrow=classic;html=1;rounded=0;exitX=1;exitY=0;exitDx=0;exitDy=0;" edge="1" parent="1" source="7tmLodyHe8h0CzpAycBB-4" target="7tmLodyHe8h0CzpAycBB-34">
          <mxGeometry width="50" height="50" relative="1" as="geometry">
            <mxPoint x="872" y="680" as="sourcePoint" />
            <mxPoint x="922" y="630" as="targetPoint" />
          </mxGeometry>
        </mxCell>
        <mxCell id="7tmLodyHe8h0CzpAycBB-34" value="&#xa;Theo dõ&lt;span class=&quot;hljs-selector-tag&quot;&gt;i&lt;/span&gt; Tồn kho&#xa;&#xa;" style="rounded=0;whiteSpace=wrap;html=1;" vertex="1" parent="1">
          <mxGeometry x="798" y="526" width="120" height="60" as="geometry" />
        </mxCell>
        <mxCell id="7tmLodyHe8h0CzpAycBB-35" value="" style="endArrow=classic;html=1;rounded=0;exitX=1;exitY=1;exitDx=0;exitDy=0;" edge="1" parent="1" source="7tmLodyHe8h0CzpAycBB-4" target="7tmLodyHe8h0CzpAycBB-36">
          <mxGeometry width="50" height="50" relative="1" as="geometry">
            <mxPoint x="872" y="680" as="sourcePoint" />
            <mxPoint x="936" y="748" as="targetPoint" />
          </mxGeometry>
        </mxCell>
        <mxCell id="7tmLodyHe8h0CzpAycBB-36" value="&#xa;Quản lý Nhậ&lt;span class=&quot;hljs-selector-tag&quot;&gt;p&lt;/span&gt; kho&#xa;&#xa;" style="rounded=0;whiteSpace=wrap;html=1;" vertex="1" parent="1">
          <mxGeometry x="859" y="637" width="120" height="60" as="geometry" />
        </mxCell>
        <mxCell id="7tmLodyHe8h0CzpAycBB-37" value="" style="endArrow=classic;html=1;rounded=0;exitX=0.5;exitY=1;exitDx=0;exitDy=0;" edge="1" parent="1" source="7tmLodyHe8h0CzpAycBB-4" target="7tmLodyHe8h0CzpAycBB-38">
          <mxGeometry width="50" height="50" relative="1" as="geometry">
            <mxPoint x="872" y="680" as="sourcePoint" />
            <mxPoint x="853" y="845" as="targetPoint" />
          </mxGeometry>
        </mxCell>
        <mxCell id="7tmLodyHe8h0CzpAycBB-38" value="&#xa;Quản lý Xuất kho&#xa;&#xa;" style="rounded=0;whiteSpace=wrap;html=1;" vertex="1" parent="1">
          <mxGeometry x="832" y="744.9999999999998" width="120" height="60" as="geometry" />
        </mxCell>
      </root>
    </mxGraphModel>
  </diagram>
</mxfile>
